<svg width="106" height="106" viewBox="0 0 106 106" fill="none" xmlns="http://www.w3.org/2000/svg">
<rect x="0.5" y="0.924805" width="105" height="105" rx="8" fill="#F7C03F"/>
<path d="M33 49.5077C33 42.7508 39.4777 37.6504 46.9632 37.6504C52.9182 37.6504 58.1991 40.8577 60.1398 45.5666C60.1589 45.616 60.1661 45.6691 60.1609 45.7218C60.1556 45.7745 60.138 45.8252 60.1094 45.8698C60.0809 45.9143 60.0423 45.9516 59.9967 45.9785C59.9511 46.0054 59.8999 46.0212 59.847 46.0246C59.2137 46.0756 58.5838 46.1676 57.9642 46.2935C57.8869 46.3089 57.8066 46.2982 57.7361 46.2631C57.6655 46.228 57.6086 46.1704 57.5743 46.0995C55.9349 42.7304 51.9053 40.204 46.9632 40.204C40.4344 40.204 35.5536 44.5758 35.5536 49.506C35.5536 52.1703 36.9394 54.6302 39.27 56.3684C39.429 56.4877 39.558 56.6424 39.6467 56.8204C39.7353 56.9983 39.7812 57.1945 39.7807 57.3933V58.9935L42.4177 58.2615C42.6469 58.198 42.8892 58.1998 43.1174 58.2666C44.1559 58.5713 45.2693 58.7552 46.4286 58.7995C46.5178 58.8028 46.6025 58.8398 46.6656 58.9029C46.7288 58.966 46.7657 59.0507 46.7691 59.1399C46.7998 59.8669 46.8968 60.57 47.0534 61.2475C47.0564 61.2612 47.0564 61.2754 47.0533 61.2891C47.0502 61.3027 47.0441 61.3155 47.0355 61.3266C47.0269 61.3377 47.0159 61.3467 47.0034 61.353C46.9909 61.3594 46.9772 61.3629 46.9632 61.3633C45.5438 61.3657 44.1301 61.1826 42.7582 60.8185L38.8478 61.9046C38.6581 61.9574 38.4587 61.9656 38.2653 61.9285C38.0719 61.8915 37.8896 61.8102 37.7329 61.691C37.5761 61.5718 37.449 61.4179 37.3616 61.2415C37.2741 61.065 37.2287 60.8707 37.2288 60.6738V58.0129C34.6581 55.8917 33 52.8887 33 49.506V49.5077Z" fill="white"/>
<path d="M44.2447 46.1761C44.2447 46.6569 44.0537 47.1181 43.7137 47.4581C43.3737 47.7981 42.9125 47.9891 42.4317 47.9891C41.9508 47.9891 41.4896 47.7981 41.1496 47.4581C40.8096 47.1181 40.6186 46.6569 40.6186 46.1761C40.6186 45.6952 40.8096 45.2341 41.1496 44.894C41.4896 44.554 41.9508 44.363 42.4317 44.363C42.9125 44.363 43.3737 44.554 43.7137 44.894C44.0537 45.2341 44.2447 45.6952 44.2447 46.1761ZM51.4936 47.9891C51.9744 47.9891 52.4356 47.7981 52.7756 47.4581C53.1156 47.1181 53.3067 46.6569 53.3067 46.1761C53.3067 45.6952 53.1156 45.2341 52.7756 44.894C52.4356 44.554 51.9744 44.363 51.4936 44.363C51.0127 44.363 50.5516 44.554 50.2116 44.894C49.8715 45.2341 49.6805 45.6952 49.6805 46.1761C49.6805 46.6569 49.8715 47.1181 50.2116 47.4581C50.5516 47.7981 51.0127 47.9891 51.4936 47.9891ZM57.338 57.9551C57.5461 57.9551 57.7522 57.9141 57.9445 57.8344C58.1368 57.7548 58.3115 57.638 58.4587 57.4908C58.6059 57.3437 58.7226 57.1689 58.8023 56.9766C58.8819 56.7844 58.9229 56.5783 58.9229 56.3701C58.9229 56.162 58.8819 55.9559 58.8023 55.7636C58.7226 55.5713 58.6059 55.3966 58.4587 55.2494C58.3115 55.1022 58.1368 54.9855 57.9445 54.9058C57.7522 54.8262 57.5461 54.7852 57.338 54.7852C56.9176 54.7852 56.5145 54.9522 56.2172 55.2494C55.92 55.5466 55.753 55.9498 55.753 56.3701C55.753 56.7905 55.92 57.1936 56.2172 57.4908C56.5145 57.7881 56.9176 57.9551 57.338 57.9551ZM66.6263 56.3701C66.6263 56.7907 66.4593 57.194 66.1619 57.4914C65.8645 57.7888 65.4611 57.9559 65.0405 57.9559C64.6199 57.9559 64.2166 57.7888 63.9192 57.4914C63.6218 57.194 63.4547 56.7907 63.4547 56.3701C63.4547 55.9495 63.6218 55.5462 63.9192 55.2488C64.2166 54.9514 64.6199 54.7843 65.0405 54.7843C65.4611 54.7843 65.8645 54.9514 66.1619 55.2488C66.4593 55.5462 66.6263 55.9495 66.6263 56.3701Z" fill="white"/>
<path fill-rule="evenodd" clip-rule="evenodd" d="M61.1511 48.9016C67.4671 48.9016 72.9999 53.2122 72.9999 58.9935C72.9999 61.8536 71.621 64.0071 69.4827 65.8049V67.9227C69.4828 68.1194 69.4373 68.3135 69.35 68.4898C69.2626 68.6661 69.1357 68.8198 68.9792 68.939C68.8226 69.0581 68.6406 69.1395 68.4474 69.1767C68.2542 69.2139 68.0551 69.206 67.8654 69.1535L64.6615 68.2632C63.5176 68.5614 62.3401 68.7113 61.1579 68.7092C54.842 68.7092 49.3092 64.3987 49.3092 58.6173C49.3092 52.8359 54.8335 48.9016 61.1511 48.9016ZM70.4531 58.6173C70.4531 54.6609 66.5188 51.0773 61.1579 51.0773C55.7987 51.0773 51.8628 54.6609 51.8628 58.6173C51.8628 62.5737 55.7987 66.1556 61.1579 66.1556C62.2217 66.1579 63.2805 66.0088 64.3023 65.713C64.531 65.6458 64.774 65.644 65.0037 65.7079L66.9291 66.2424V65.1869C66.9295 64.9884 66.9762 64.7927 67.0654 64.6154C67.1547 64.4381 67.284 64.284 67.4432 64.1655C69.3397 62.7491 70.4531 60.7589 70.4531 58.6156V58.6173Z" fill="white"/>
</svg>
