<svg width="111" height="14" viewBox="0 0 111 14" fill="none" xmlns="http://www.w3.org/2000/svg">
<path d="M3.1775 13.6496L4.315 8.73211L0.5 5.42461L5.54 4.98711L7.5 0.349609L9.46 4.98711L14.5 5.42461L10.685 8.73211L11.8225 13.6496L7.5 11.0421L3.1775 13.6496Z" fill="white"/>
<path d="M27.1775 13.6496L28.315 8.73211L24.5 5.42461L29.54 4.98711L31.5 0.349609L33.46 4.98711L38.5 5.42461L34.685 8.73211L35.8225 13.6496L31.5 11.0421L27.1775 13.6496Z" fill="white"/>
<path d="M51.1775 13.6496L52.315 8.73211L48.5 5.42461L53.54 4.98711L55.5 0.349609L57.46 4.98711L62.5 5.42461L58.685 8.73211L59.8225 13.6496L55.5 11.0421L51.1775 13.6496Z" fill="white"/>
<path d="M75.1775 13.6496L76.315 8.73211L72.5 5.42461L77.54 4.98711L79.5 0.349609L81.46 4.98711L86.5 5.42461L82.685 8.73211L83.8225 13.6496L79.5 11.0421L75.1775 13.6496Z" fill="white"/>
<path d="M99.1775 13.6496L100.315 8.73211L96.5 5.42461L101.54 4.98711L103.5 0.349609L105.46 4.98711L110.5 5.42461L106.685 8.73211L107.822 13.6496L103.5 11.0421L99.1775 13.6496Z" fill="white"/>
</svg>
