<svg width="106" height="106" viewBox="0 0 106 106" fill="none" xmlns="http://www.w3.org/2000/svg">
<rect x="0.5" y="0.924805" width="105" height="105" rx="8" fill="#2EB778"/>
<path d="M53 35.9248C50.7019 35.9248 48.4262 36.3775 46.303 37.2569C44.1798 38.1364 42.2507 39.4254 40.6256 41.0504C37.3437 44.3323 35.5 48.7835 35.5 53.4248C35.5 58.0661 37.3437 62.5173 40.6256 65.7992C42.2507 67.4242 44.1798 68.7132 46.303 69.5927C48.4262 70.4722 50.7019 70.9248 53 70.9248C57.6413 70.9248 62.0925 69.0811 65.3744 65.7992C68.6563 62.5173 70.5 58.0661 70.5 53.4248C70.5 51.1267 70.0474 48.851 69.1679 46.7278C68.2884 44.6046 66.9994 42.6755 65.3744 41.0504C63.7493 39.4254 61.8202 38.1364 59.697 37.2569C57.5738 36.3775 55.2981 35.9248 53 35.9248ZM60.35 60.7748L51.25 55.1748V44.6748H53.875V53.7748L61.75 58.4998L60.35 60.7748Z" fill="white"/>
</svg>
