<svg width="150" height="26" viewBox="0 0 150 26" fill="none" xmlns="http://www.w3.org/2000/svg">
<path d="M22.5769 11.8571C20.4862 14.6048 16.5756 16.4537 12.0981 16.4537C7.62062 16.4537 3.70999 18.3026 1.61923 21.0511C0.588901 19.6985 0 18.1287 0 16.4537C0 16.1952 0.0140457 15.9398 0.0411333 15.6867C0.192623 14.3006 0.747413 13.0007 1.61923 11.8571C3.70999 9.10934 7.62062 7.26048 12.0981 7.26048C13.4725 7.26048 14.7928 7.43431 16.0238 7.75528C18.8038 8.47958 21.1273 9.95257 22.5769 11.8571Z" fill="#F4A500"/>
<path d="M22.577 21.0511C20.4862 23.7988 16.5756 25.6477 12.0981 25.6477C7.62067 25.6477 3.70999 23.7988 1.61923 21.0511C3.70999 18.3026 7.61962 16.4537 12.0981 16.4537C16.5766 16.4537 20.4862 18.3026 22.577 21.0511Z" fill="#6652FF"/>
<path d="M22.5358 0C22.5358 2.36044 21.2768 4.49749 19.2412 6.04444C18.3152 6.74815 17.2267 7.33062 16.0238 7.75528C14.7928 7.43431 13.4725 7.26048 12.0981 7.26048C7.62062 7.26048 3.70999 9.10934 1.61923 11.8571C0.747413 13.0007 0.192623 14.3006 0.0411333 15.6867L0.0411603 8.54745C0.0411603 6.18777 1.30023 4.05072 3.33581 2.50378C5.37038 0.956834 8.18247 0 11.2885 0H22.5358Z" fill="#EF3062"/>
<path d="M35.1278 8.31325H38.745V25.6627H35.4434L35.3706 24.5542L35.4192 23.759H35.3706C35.0793 24.4016 34.5614 24.9398 33.8169 25.3735C33.0724 25.7912 32.2794 26 31.4378 26C29.8356 26 28.4842 25.4217 27.3837 24.2651C26.3155 23.1084 25.7815 21.5663 25.7815 19.6386C25.7815 17.7108 26.3155 16.1687 27.3837 15.012C28.4519 13.8554 29.7709 13.2771 31.3407 13.2771C32.1499 13.2771 32.8944 13.4458 33.5742 13.7831C34.2539 14.1044 34.7799 14.5221 35.1521 15.0361H35.2007C35.1521 14.8273 35.1278 14.498 35.1278 14.0482V8.31325ZM32.0933 16.3133C31.2517 16.3133 30.5558 16.6185 30.0055 17.2289C29.4715 17.8394 29.2044 18.6426 29.2044 19.6386C29.2044 20.6185 29.4715 21.4217 30.0055 22.0482C30.5558 22.6586 31.2517 22.9639 32.0933 22.9639C32.9187 22.9639 33.6065 22.6667 34.1568 22.0723C34.7232 21.4618 35.0065 20.6506 35.0065 19.6386C35.0065 18.6265 34.7232 17.8233 34.1568 17.2289C33.6065 16.6185 32.9187 16.3133 32.0933 16.3133Z" fill="#6652FF"/>
<path d="M53.6196 13.6145V25.6627H50.318L50.2209 24.2892C50.2047 23.9839 50.2371 23.7028 50.318 23.4458H50.2694C49.9781 24.0562 49.444 24.6426 48.6672 25.2048C47.9227 25.7349 47.0812 26 46.1425 26C44.7668 26 43.7148 25.5904 42.9865 24.7711C42.2744 23.9518 41.9184 22.747 41.9184 21.1566V13.6145H45.5598V20.5542C45.5598 22 46.1101 22.7229 47.2106 22.7229C48.036 22.7229 48.7077 22.4337 49.2256 21.8554C49.7435 21.261 50.0024 20.5141 50.0024 19.6145V13.6145H53.6196Z" fill="#6652FF"/>
<path d="M56.3211 24.0723C56.3211 23.4779 56.4991 23.004 56.8552 22.6506C57.2274 22.2972 57.721 22.1205 58.336 22.1205C58.951 22.1205 59.4365 22.2972 59.7926 22.6506C60.1648 23.004 60.3509 23.4779 60.3509 24.0723C60.3509 24.6506 60.1648 25.1165 59.7926 25.4699C59.4204 25.8233 58.9348 26 58.336 26C57.721 26 57.2274 25.8233 56.8552 25.4699C56.4991 25.1165 56.3211 24.6506 56.3211 24.0723Z" fill="#6652FF"/>
<path d="M64.1898 25.6627V8.31325H70.3317C72.4195 8.31325 74.0622 8.81928 75.2598 9.83133C76.4736 10.8273 77.0806 12.2249 77.0806 14.0241C77.0806 15.1968 76.7812 16.2169 76.1823 17.0843C75.5997 17.9357 74.7905 18.5623 73.7547 18.9639L77.4204 25.6627H73.4634L70.3803 19.5904H67.8556V25.6627H64.1898ZM70.4288 11.4217H67.8556V16.6024H70.5259C71.3999 16.6024 72.0796 16.3855 72.5652 15.9518C73.0669 15.502 73.3177 14.8594 73.3177 14.0241C73.3177 13.1888 73.0588 12.5462 72.5409 12.0964C72.023 11.6466 71.319 11.4217 70.4288 11.4217Z" fill="#6652FF"/>
<path d="M84.8382 13.2771C86.6022 13.2771 87.986 13.8233 88.9894 14.9157C89.9928 16.008 90.4946 17.3414 90.4946 18.9157C90.4946 19.3173 90.4622 19.8072 90.3974 20.3855H82.4348C82.4995 21.2048 82.8313 21.8394 83.4301 22.2892C84.029 22.739 84.822 22.9639 85.8092 22.9639C86.5699 22.9639 87.371 22.8755 88.2126 22.6988C89.0056 22.506 89.6044 22.2972 90.009 22.0723V25.1325C88.8599 25.7108 87.3467 26 85.4694 26C83.414 26 81.7632 25.4056 80.517 24.2169C79.287 23.0442 78.672 21.5181 78.672 19.6386C78.672 17.8072 79.2627 16.2972 80.4442 15.1084C81.6256 13.8876 83.0903 13.2771 84.8382 13.2771ZM82.4348 18.5301H87.023C87.0554 17.8394 86.8693 17.2691 86.4647 16.8193C86.0601 16.3534 85.5098 16.1205 84.8139 16.1205C84.1342 16.1205 83.5758 16.3454 83.1388 16.7952C82.718 17.245 82.4834 17.8233 82.4348 18.5301Z" fill="#6652FF"/>
<path d="M96.0411 19.6386C96.0411 20.6185 96.3405 21.3976 96.9393 21.9759C97.5382 22.5542 98.3312 22.8434 99.3184 22.8434C100.484 22.8434 101.56 22.5141 102.547 21.8554V25.1084C101.366 25.7028 100.128 26 98.8329 26C96.907 26 95.3452 25.4056 94.1476 24.2169C92.9661 23.0281 92.3754 21.502 92.3754 19.6386C92.3754 17.7751 92.9661 16.257 94.1476 15.0843C95.329 13.8795 96.8908 13.2771 98.8329 13.2771C100.095 13.2771 101.309 13.5663 102.474 14.1446V17.4217C101.536 16.7631 100.484 16.4337 99.3184 16.4337C98.3474 16.4337 97.5544 16.7309 96.9393 17.3253C96.3405 17.9036 96.0411 18.6747 96.0411 19.6386Z" fill="#6652FF"/>
<path d="M108.625 25.6627H105.008V13.6145H108.309L108.382 14.7952C108.382 15.261 108.39 15.5261 108.406 15.5904C109.313 14.0482 110.51 13.2771 111.999 13.2771C112.42 13.2771 112.679 13.3012 112.776 13.3494V16.8675C112.582 16.7711 112.315 16.7229 111.975 16.7229C111.036 16.7229 110.243 17.0843 109.596 17.8072C108.948 18.5141 108.625 19.4217 108.625 20.5301V25.6627Z" fill="#6652FF"/>
<path d="M126.33 13.6145V25.6627H123.028L122.931 24.2892C122.915 23.9839 122.948 23.7028 123.028 23.4458H122.98C122.689 24.0562 122.154 24.6426 121.378 25.2048C120.633 25.7349 119.792 26 118.853 26C117.477 26 116.425 25.5904 115.697 24.7711C114.985 23.9518 114.629 22.747 114.629 21.1566V13.6145H118.27V20.5542C118.27 22 118.821 22.7229 119.921 22.7229C120.746 22.7229 121.418 22.4337 121.936 21.8554C122.454 21.261 122.713 20.5141 122.713 19.6145V13.6145H126.33Z" fill="#6652FF"/>
<path d="M128.182 16.4337V13.6145H129.93V10H133.45V13.6145H136.679V16.4337H133.45V21.2771C133.45 21.8394 133.587 22.2651 133.863 22.5542C134.154 22.8434 134.534 22.988 135.003 22.988C135.699 22.988 136.387 22.8193 137.067 22.4819V25.4458C136.29 25.8153 135.262 26 133.984 26C132.867 26 131.945 25.7108 131.216 25.1325C130.488 24.5542 130.059 23.7028 129.93 22.5783C129.881 21.8072 129.857 21.3976 129.857 21.3494V16.4337H128.182Z" fill="#6652FF"/>
<path d="M144.344 13.2771C146.108 13.2771 147.491 13.8233 148.495 14.9157C149.498 16.008 150 17.3414 150 18.9157C150 19.3173 149.968 19.8072 149.903 20.3855H141.94C142.005 21.2048 142.337 21.8394 142.936 22.2892C143.534 22.739 144.327 22.9639 145.315 22.9639C146.075 22.9639 146.876 22.8755 147.718 22.6988C148.511 22.506 149.11 22.2972 149.514 22.0723V25.1325C148.365 25.7108 146.852 26 144.975 26C142.919 26 141.269 25.4056 140.022 24.2169C138.792 23.0442 138.177 21.5181 138.177 19.6386C138.177 17.8072 138.768 16.2972 139.95 15.1084C141.131 13.8876 142.596 13.2771 144.344 13.2771ZM141.94 18.5301H146.528C146.561 17.8394 146.375 17.2691 145.97 16.8193C145.566 16.3534 145.015 16.1205 144.319 16.1205C143.64 16.1205 143.081 16.3454 142.644 16.7952C142.223 17.245 141.989 17.8233 141.94 18.5301Z" fill="#6652FF"/>
</svg>
