<svg width="22" height="23" viewBox="0 0 22 23" fill="none" xmlns="http://www.w3.org/2000/svg">
<path d="M6.6 8.42168V6.22168H16.5V8.42168H6.6ZM6.6 11.7217V9.52168H16.5V11.7217H6.6ZM12.1 22.7217V19.3392L18.1775 13.2892C18.3425 13.1242 18.5258 13.005 18.7275 12.9317C18.9292 12.8583 19.1308 12.8217 19.3325 12.8217C19.5525 12.8217 19.7633 12.8631 19.965 12.946C20.1667 13.0288 20.35 13.1524 20.515 13.3167L21.5325 14.3342C21.6792 14.4992 21.7939 14.6825 21.8768 14.8842C21.9597 15.0858 22.0007 15.2875 22 15.4892C22 15.6908 21.9633 15.8973 21.89 16.1085C21.8167 16.3197 21.6975 16.5074 21.5325 16.6717L15.4825 22.7217H12.1ZM19.3325 16.5617L20.35 15.4892L19.3325 14.4717L18.2875 15.5167L19.3325 16.5617ZM3.3 22.7217C2.38333 22.7217 1.60417 22.4008 0.962499 21.7592C0.320833 21.1175 0 20.3383 0 19.4217V16.1217H3.3V0.72168H19.8V10.6492C19.4333 10.6125 19.0623 10.6264 18.6868 10.691C18.3113 10.7555 17.9491 10.8699 17.6 11.0342V2.92168H5.5V16.1217H12.1L9.89999 18.3217V22.7217H3.3Z" fill="#2EB778"/>
</svg>
