<svg width="22" height="22" viewBox="0 0 22 22" fill="none" xmlns="http://www.w3.org/2000/svg">
<path d="M19.8537 16.0221C20.4229 16.0221 20.9688 15.7987 21.3714 15.4011C21.7739 15.0036 22 14.4643 22 13.9021V2.24207C22 1.67981 21.7739 1.14058 21.3714 0.743004C20.9688 0.345427 20.4229 0.12207 19.8537 0.12207H8.54244C8.91805 0.76867 9.12195 1.50007 9.12195 2.24207H19.8537V13.9021H10.1951V16.0221M14.4878 5.42207V7.54207H8.04878V21.3221H5.90244V14.9621H3.7561V21.3221H1.60976V12.8421H0V7.54207C0 6.97981 0.226132 6.44058 0.628649 6.043C1.03117 5.64543 1.5771 5.42207 2.14634 5.42207H14.4878ZM6.97561 2.24207C6.97561 2.80433 6.74948 3.34356 6.34696 3.74114C5.94444 4.13871 5.39851 4.36207 4.82927 4.36207C4.26002 4.36207 3.71409 4.13871 3.31158 3.74114C2.90906 3.34356 2.68293 2.80433 2.68293 2.24207C2.68293 1.67981 2.90906 1.14058 3.31158 0.743004C3.71409 0.345427 4.26002 0.12207 4.82927 0.12207C5.39851 0.12207 5.94444 0.345427 6.34696 0.743004C6.74948 1.14058 6.97561 1.67981 6.97561 2.24207Z" fill="#F4A500"/>
</svg>
