<svg width="22" height="18" viewBox="0 0 22 18" fill="none" xmlns="http://www.w3.org/2000/svg">
<path d="M11.6119 0.400977C11.2406 0.161914 10.7594 0.161914 10.3881 0.400977L5.71656 3.40918H1.65C0.739062 3.40918 0 4.12305 0 5.00293V15.6279C0 16.5078 0.739062 17.2217 1.65 17.2217H8.8V14.0342C8.8 12.8621 9.78656 11.9092 11 11.9092C12.2134 11.9092 13.2 12.8621 13.2 14.0342V17.2217H20.35C21.2609 17.2217 22 16.5078 22 15.6279V5.00293C22 4.12305 21.2609 3.40918 20.35 3.40918H16.2834L11.6119 0.400977ZM3.3 6.59668H4.4C4.7025 6.59668 4.95 6.83574 4.95 7.12793V9.25293C4.95 9.54512 4.7025 9.78418 4.4 9.78418H3.3C2.9975 9.78418 2.75 9.54512 2.75 9.25293V7.12793C2.75 6.83574 2.9975 6.59668 3.3 6.59668ZM17.05 7.12793C17.05 6.83574 17.2975 6.59668 17.6 6.59668H18.7C19.0025 6.59668 19.25 6.83574 19.25 7.12793V9.25293C19.25 9.54512 19.0025 9.78418 18.7 9.78418H17.6C17.2975 9.78418 17.05 9.54512 17.05 9.25293V7.12793ZM3.3 10.8467H4.4C4.7025 10.8467 4.95 11.0857 4.95 11.3779V13.5029C4.95 13.7951 4.7025 14.0342 4.4 14.0342H3.3C2.9975 14.0342 2.75 13.7951 2.75 13.5029V11.3779C2.75 11.0857 2.9975 10.8467 3.3 10.8467ZM17.05 11.3779C17.05 11.0857 17.2975 10.8467 17.6 10.8467H18.7C19.0025 10.8467 19.25 11.0857 19.25 11.3779V13.5029C19.25 13.7951 19.0025 14.0342 18.7 14.0342H17.6C17.2975 14.0342 17.05 13.7951 17.05 13.5029V11.3779ZM7.975 6.06543C7.975 5.2905 8.2937 4.54731 8.861 3.99935C9.4283 3.45139 10.1977 3.14355 11 3.14355C11.8023 3.14355 12.5717 3.45139 13.139 3.99935C13.7063 4.54731 14.025 5.2905 14.025 6.06543C14.025 6.84036 13.7063 7.58355 13.139 8.13151C12.5717 8.67947 11.8023 8.9873 11 8.9873C10.1977 8.9873 9.4283 8.67947 8.861 8.13151C8.2937 7.58355 7.975 6.84036 7.975 6.06543ZM11 4.47168C10.6975 4.47168 10.45 4.71074 10.45 5.00293V6.06543C10.45 6.35762 10.6975 6.59668 11 6.59668H12.1C12.4025 6.59668 12.65 6.35762 12.65 6.06543C12.65 5.77324 12.4025 5.53418 12.1 5.53418H11.55V5.00293C11.55 4.71074 11.3025 4.47168 11 4.47168Z" fill="#6652FF"/>
</svg>
