<svg width="22" height="19" viewBox="0 0 22 19" fill="none" xmlns="http://www.w3.org/2000/svg">
<path d="M7.15004 13.0967C7.06788 13.0967 6.98573 13.109 6.90735 13.135C6.46185 13.283 5.99332 13.3779 5.50004 13.3779C5.00676 13.3779 4.53823 13.283 4.09239 13.135C4.01401 13.109 3.9322 13.0967 3.85005 13.0967C1.71674 13.0967 -0.0112882 14.8714 5.55319e-05 17.056C0.00486802 17.9792 0.747022 18.7217 1.65005 18.7217H9.35003C10.2531 18.7217 10.9952 17.9792 11 17.056C11.0114 14.8714 9.28335 13.0967 7.15004 13.0967ZM5.50004 11.9717C7.3226 11.9717 8.80003 10.4607 8.80003 8.59668C8.80003 6.73269 7.3226 5.22168 5.50004 5.22168C3.67748 5.22168 2.20005 6.73269 2.20005 8.59668C2.20005 10.4607 3.67748 11.9717 5.50004 11.9717ZM20.35 0.72168H7.15004C6.24013 0.72168 5.50004 1.50391 5.50004 2.46508V4.09668C6.3051 4.09668 7.05035 4.33504 7.70004 4.72246V2.97168H19.8V13.0967H17.6V10.8467H13.2V13.0967H10.5793C11.2358 13.6834 11.7178 14.4583 11.9436 15.3467H20.35C21.2599 15.3467 22 14.5645 22 13.6033V2.46508C22 1.50391 21.2599 0.72168 20.35 0.72168Z" fill="#EF3062"/>
</svg>
